<svg id="_x33_0" enable-background="new 0 0 64 64" height="512" viewBox="0 0 64 64" width="512" xmlns="http://www.w3.org/2000/svg"><g><path d="m36 41c-1.654 0-3 1.346-3 3s1.346 3 3 3 3-1.346 3-3-1.346-3-3-3zm0 4c-.551 0-1-.449-1-1s.449-1 1-1 1 .449 1 1-.449 1-1 1z"/><path d="m55.296 18.118.751-.751c1.26-1.26 1.954-2.935 1.954-4.716 0-2.609-1.535-4.993-3.91-6.072l-6.481-2.946c-.563-.256-1.025-.702-1.302-1.255-.427-.85-1.281-1.378-2.231-1.378-1.075 0-2.026.686-2.366 1.705-.524 1.572-.061 3.284 1.181 4.376l3.4 3.575c.457.479.708 1.108.708 1.771 0 1.108-.706 2.088-1.759 2.438l-3.379 1.134c-1.146-.635-2.462-.999-3.862-.999h-12c-1.398 0-2.712.362-3.856.995l-3.386-1.13c-1.052-.35-1.758-1.33-1.758-2.438 0-.663.251-1.292.708-1.771l3.4-3.575c1.241-1.092 1.705-2.804 1.181-4.375-.34-1.02-1.29-1.706-2.366-1.706-.95 0-1.805.528-2.231 1.378-.276.553-.739.999-1.301 1.255l-6.481 2.946c-2.375 1.08-3.91 3.463-3.91 6.072 0 1.782.694 3.457 1.954 4.716l.74.74c-1.542.373-2.694 1.755-2.694 3.409 0 .449.084.888.251 1.306l1.142 2.855c.519 1.298 1.408 2.393 2.571 3.168 1.135.756 2.454 1.155 3.816 1.155h2.523c-.192.698-.303 1.419-.303 2.154 0 1.627.305 3.211.882 4.697l-4.049 5.371c-1.182 1.577-1.833 3.529-1.833 5.499 0 3.6 2.121 6.879 5.404 8.357l15.596 7.019 15.596-7.019c3.283-1.477 5.404-4.757 5.404-8.357 0-1.97-.651-3.922-1.834-5.5l-4.047-5.369c.576-1.487.881-3.071.881-4.698 0-.735-.111-1.456-.303-2.154h2.523c1.362 0 2.681-.399 3.815-1.155 1.163-.775 2.052-1.871 2.571-3.168l1.142-2.855c.168-.418.252-.857.252-1.306 0-1.641-1.135-3.012-2.704-3.398zm.704 3.398c0 .176-.039.346-.098.511-3.442.132-7.069 1.216-9.617 2.915l-.285.19v-2.132c0-.094-.011-.184-.014-.277l7.943-2.645c.154-.052.316-.078.555-.078.836 0 1.516.68 1.516 1.516zm-10.125-4.754c1.869-.623 3.125-2.365 3.125-4.335 0-1.178-.447-2.296-1.259-3.15l-3.433-3.609-.074-.07c-.652-.559-.897-1.446-.626-2.261.127-.379.731-.422.91-.064.482.961 1.285 1.736 2.264 2.181l6.481 2.946c1.662.755 2.737 2.424 2.737 4.251 0 1.248-.486 2.42-1.368 3.302l-2.672 2.672-6.296 2.097c-.368-1.236-1.028-2.345-1.898-3.252zm-7.875.238c3.309 0 6 2.691 6 6v4.303l.973 1.459c.672 1.009 1.027 2.181 1.027 3.392 0 2.307-.708 4.518-2.049 6.394l-1.679 2.348c-.479-.967-1.179-1.825-2.059-2.486l-.356-.267c-1.103-.826-2.497-1.182-3.857-1.087v-7.056h2c2.206 0 4-1.794 4-4 0-1.103-.897-2-2-2h-2.382c-1.38 0-2.62.767-3.236 2-.25.5-.382 1.059-.382 1.618l.001 9.93c-.257.118-.507.254-.744.412l-1.257.838-1.257-.838c-.237-.158-.486-.293-.743-.411v-9.931c0-.559-.132-1.118-.382-1.618-.617-1.234-1.856-2-3.236-2h-2.382c-1.103 0-2 .897-2 2 0 2.206 1.794 4 4 4h2v7.056c-1.361-.095-2.755.261-3.857 1.087l-.357.268c-.879.659-1.578 1.516-2.057 2.487l-1.68-2.35c-1.341-1.876-2.049-4.087-2.049-6.394 0-1.211.355-2.384 1.027-3.392l.973-1.459v-4.303c0-3.309 2.691-6 6-6zm-16 31.92c0-.279.125-.54.343-.715l3.167-2.534c.089.132.194.251.302.367l-2.112 3.517c-.164.275-.465.445-.784.445-.505 0-.916-.411-.916-.916zm5-4.92c0-.551.449-1 1-1s1 .449 1 1-.449 1-1 1-1-.449-1-1zm7.385 4.741-2.385-.795-2.384.795c-1.004.334-2.102.336-3.108.024l1.085-1.806c.134.018.268.041.407.041 1.654 0 3-1.346 3-3s-1.346-3-3-3c-1.475 0-2.698 1.072-2.947 2.477l-1.941 1.553c-.07-.34-.112-.69-.112-1.048 0-1.555.742-3.04 1.985-3.972l.357-.268c1.229-.92 3.014-.97 4.291-.119l2.367 1.579 2.367-1.578c1.276-.851 3.063-.801 4.291.12l.356.267c1.244.932 1.986 2.417 1.986 4.007 0 1.555-.742 3.04-1.986 3.972-1.304.978-3.083 1.266-4.629.751zm2.588 2.178c-.069 1.02-.585 1.955-1.443 2.526-.545.363-1.179.555-1.833.555h-3.395c-.654 0-1.288-.192-1.832-.555-.859-.573-1.376-1.51-1.444-2.531 1.075.152 2.183.069 3.221-.276l1.753-.584 1.752.584c.721.24 1.471.362 2.23.362.332 0 .663-.034.991-.081zm-8.973-22.919h-2c-1.103 0-2-.897-2-2h2.382c.617 0 1.171.343 1.447.895.112.223.171.473.171.723zm8 0v-.382c0-.25.059-.5.171-.724.276-.551.83-.894 1.447-.894h2.382c0 1.103-.897 2-2 2zm-25.263-19.601 6.481-2.946c.979-.444 1.782-1.219 2.263-2.18.179-.359.784-.316.911.064.271.814.026 1.702-.626 2.26l-3.507 3.679c-.812.854-1.259 1.973-1.259 3.151 0 1.97 1.256 3.712 3.125 4.335l2.111.705c-.873.909-1.533 2.02-1.902 3.258l-6.294-2.099-2.672-2.672c-.882-.883-1.368-2.055-1.368-3.303 0-1.827 1.075-3.496 2.737-4.252zm-1.145 11.601c.164 0 .325.026.479.078l7.943 2.649c-.003.091-.014.181-.014.273v2.132l-.285-.19c-2.548-1.699-6.175-2.783-9.617-2.915-.059-.165-.098-.336-.098-.511 0-.836.68-1.516 1.592-1.516zm4.188 8c-.966 0-1.902-.283-2.706-.819-.825-.55-1.455-1.327-1.824-2.248l-.343-.857c2.81.25 5.656 1.168 7.698 2.53l1.008.672-.25.376c-.074.111-.128.233-.196.347h-3.387zm35.787 15.423c.924 1.232 1.433 2.758 1.433 4.298 0 2.814-1.658 5.378-4.224 6.533l-14.776 6.649-14.776-6.649c-2.566-1.155-4.224-3.719-4.224-6.533 0-1.54.509-3.066 1.431-4.296l3.436-4.558c.174.287.358.568.555.844l2.616 3.659c-.02.215-.038.43-.038.648 0 .805.143 1.611.416 2.369l-.323.258c-.695.556-1.093 1.386-1.093 2.275v.164c0 1.608 1.308 2.916 2.916 2.916.805 0 1.563-.349 2.108-.922.117 1.629.966 3.117 2.338 4.032.874.582 1.891.89 2.941.89h3.395c1.05 0 2.067-.308 2.941-.891 1.478-.985 2.361-2.635 2.361-4.412v-.396c.425-.201.837-.429 1.214-.712 1.744-1.308 2.786-3.391 2.786-5.607 0-.206-.018-.41-.036-.615l2.615-3.657c.197-.275.382-.557.555-.844zm5.183-18.49c-.369.92-.999 1.698-1.824 2.248-.804.536-1.74.819-2.706.819h-3.387c-.068-.114-.122-.236-.196-.347l-.25-.376 1.008-.672c2.043-1.362 4.888-2.28 7.698-2.53z"/></g></svg>